<svg width="502" height="429" viewBox="0 0 502 429" fill="none" xmlns="http://www.w3.org/2000/svg">
<g clip-path="url(#clip0_3400_955)">
<path d="M258.197 213.606C259.992 220.802 257.59 227.555 252.832 228.688C248.073 229.821 242.761 224.906 240.966 217.707C240.208 214.842 240.174 211.837 240.867 208.947L233.658 178.361L248.642 175.305L254.157 205.781C256.135 208.037 257.52 210.72 258.197 213.606Z" fill="#FDADB0"/>
<path d="M195.376 388.496L196.299 408.542L195.375 414.089L198.61 420.561L224.034 423.334L225.421 411.316L212.016 404.382L211.626 393.055L195.376 388.496Z" fill="#FDADB0"/>
<path d="M222.185 418.712L220.799 420.561L194.173 412.888C194.173 412.888 195.375 424.721 195.375 427.032C195.375 429.344 239.289 429.344 245.897 428.419C252.505 427.495 250.383 421.485 250.383 421.485L222.979 408.513L222.185 418.712Z" fill="#2F2E43"/>
<path d="M129.138 373.74L123.597 393.027L120.946 397.987L121.94 405.153L145.14 415.917L150.3 404.975L139.819 394.115L146.393 377.066L129.138 373.74Z" fill="#FDADB0"/>
<path d="M144.867 410.946L142.962 412.254L120.192 396.464C120.192 396.464 117.543 408.059 116.804 410.249C116.064 412.439 157.669 426.493 164.225 427.731C170.781 428.97 170.694 422.598 170.694 422.598L148.883 401.538L144.867 410.946Z" fill="#2F2E43"/>
<path d="M197.168 57.5429L198.139 73.3086L168.7 74.802L177.816 54.0305L197.168 57.5429Z" fill="#FDADB0"/>
<path d="M198.89 70.9502C190.999 74.4697 178.378 73.5068 164.075 70.9502L161.84 170.043C161.84 170.043 206.582 179.038 221.965 162.44L213.868 81.4756L198.89 70.9502Z" fill="#E0E1E2"/>
<path d="M217.107 164.869L153.943 171.112L122.772 382.766H146.656L187.555 237.738L190.794 402.096H212.654L231.276 200.899L217.107 164.869Z" fill="#2F2E43"/>
<path d="M173.055 64.8779L151.833 77.4368C143.793 82.1944 140.004 91.7984 142.629 100.764L159.031 156.785C159.031 156.785 132.321 202.671 141 206.719C160.504 215.816 189.606 213.601 189.606 213.601L183.102 103.741L173.055 64.8779Z" fill="#3F3D58"/>
<path d="M197.968 70.5337L221.965 79.8564L227.632 149.081L243.504 204.848C216.621 214.661 219.131 210.088 219.131 210.088L214.678 113.862L197.968 70.5337Z" fill="#3F3D58"/>
<path d="M233.024 203.669L232.941 203.29L208.412 89.8378C207.726 86.6679 208.603 83.4904 210.816 81.1195C213.03 78.7484 216.14 77.6564 219.35 78.1231C223.309 78.6987 226.479 81.5826 227.425 85.4704L254.368 196.219L233.024 203.669Z" fill="#3F3D58"/>
<path d="M184.394 61.7313C197.585 61.7313 208.278 51.038 208.278 37.8471C208.278 24.6562 197.585 13.9629 184.394 13.9629C171.203 13.9629 160.51 24.6562 160.51 37.8471C160.51 51.038 171.203 61.7313 184.394 61.7313Z" fill="#FDADB0"/>
<path d="M195.757 6.90324C201.018 8.75226 204.028 9.81031 206.786 12.4668C211.444 16.9541 212.212 22.9507 212.927 28.5226C213.485 32.8814 214.208 38.5171 211.655 44.9561C210.784 47.1534 206.559 56.9435 198.471 58.1808C196.883 58.4237 193.154 58.4876 194.229 57.6941C204.176 50.3501 208.422 45.9165 208.074 34.5982C207.857 27.5655 197.111 19.9725 190.73 18.6075C188.042 18.0326 184.464 18.5578 181.898 20.6645C176.535 25.0672 176.763 43.2732 171.108 47.079C168.783 48.6442 170.332 37.6267 168.694 39.4134C165.46 42.9387 167.534 48.3375 168.115 50.3935C170.871 60.1459 176.068 61.1004 178.759 69.4285C181.666 78.4198 178.008 86.885 177.141 88.8924C175.632 92.3844 173.042 98.3774 167.126 101.253C159.616 104.902 153.697 100.15 150.206 104.224C148.254 106.501 149.31 108.914 145.785 115.998C144.634 118.31 144.059 119.467 143.549 119.426C141.139 119.231 137.236 99.9371 143.548 81.9683C146.197 74.4275 148.792 67.0394 155.748 61.2621C159.426 58.2078 162.511 57.1087 163.389 53.5419C164.643 48.4463 159.434 46.2714 158.39 38.2313C157.677 32.7327 157.176 24.8686 159.117 19.8282C160.95 15.0682 162.542 10.9362 166.707 7.18984C167.708 6.28999 175.784 0.173407 184.348 0.000868615C188.29 -0.0784482 191.186 5.29678 195.757 6.90324Z" fill="#2F2E43"/>
<path d="M246.417 215.834C278.68 215.834 304.834 189.68 304.834 157.417C304.834 125.154 278.68 99 246.417 99C214.154 99 188 125.154 188 157.417C188 189.68 214.154 215.834 246.417 215.834Z" fill="#A51C05"/>
<path d="M0 427.891C0 428.344 0.363231 428.707 0.81555 428.707H500.599C501.052 428.707 501.415 428.344 501.415 427.891C501.415 427.439 501.052 427.076 500.599 427.076H0.81555C0.363231 427.076 0 427.439 0 427.891Z" fill="#3F3D58"/>
<path d="M196.917 145.212C204.293 144.436 210.645 147.755 211.104 152.625C211.563 157.495 205.957 162.071 198.578 162.846C195.634 163.198 192.655 162.813 189.889 161.724L158.597 164.603L157.658 149.34L188.605 148.122C191.114 146.478 193.964 145.48 196.917 145.212Z" fill="#FDADB0"/>
<path d="M158.793 78.161C151.219 77.0942 144.113 82.0745 142.538 89.5599C137.046 115.675 127.189 171.304 142.67 172.232C162.911 173.447 182.343 168.589 182.343 168.589L177.485 140.656L161.697 139.037L170.983 95.5981C172.747 87.3502 167.145 79.3373 158.793 78.161Z" fill="#3F3D58"/>
<path d="M258.633 159.811H254.629V147.523C254.629 142.826 250.808 139.004 246.11 139.004C241.413 139.004 237.592 142.826 237.592 147.523V159.811H233.588V147.523C233.588 140.618 239.205 135 246.11 135C253.015 135 258.633 140.617 258.633 147.523V159.811Z" fill="white"/>
<path d="M263.221 156.685V176.786C263.221 178.076 262.177 179.12 260.887 179.12H231.322C230.044 179.12 229 178.076 229 176.786V156.685C229 155.395 230.044 154.351 231.322 154.351H260.887C261.286 154.351 261.667 154.449 261.993 154.633C262.724 155.02 263.221 155.794 263.221 156.685Z" fill="white"/>
<path opacity="0.5" d="M250.513 164.212C250.513 161.734 248.543 159.725 246.11 159.725C243.678 159.725 241.708 161.734 241.708 164.212C241.708 166.139 242.906 167.768 244.579 168.404L244.349 173.746H247.872L247.346 168.498C249.172 167.951 250.513 166.25 250.513 164.212Z" fill="black"/>
</g>
<defs>
<clipPath id="clip0_3400_955">
<rect width="501.415" height="428.997" fill="white"/>
</clipPath>
</defs>
</svg>
