<svg width="32" height="32" viewBox="0 0 32 32" fill="none" xmlns="http://www.w3.org/2000/svg">
<path fill-rule="evenodd" clip-rule="evenodd" d="M28 16C28 22.6274 22.6274 28 16 28C9.37258 28 4 22.6274 4 16C4 9.37258 9.37258 4 16 4C22.6274 4 28 9.37258 28 16ZM22.1903 13.7236C22.5899 13.3423 22.6048 12.7093 22.2236 12.3097C21.8423 11.9101 21.2093 11.8952 20.8097 12.2764L14.1631 18.6174L11.1909 15.777C10.7916 15.3955 10.1586 15.4098 9.77704 15.8091C9.39547 16.2084 9.40983 16.8414 9.80911 17.223L13.4716 20.723C13.8579 21.0921 14.4662 21.0924 14.8528 20.7236L22.1903 13.7236Z" fill="#28A745"/>
</svg>
